<svg width="18" height="23" viewBox="0 0 18 23" fill="none" xmlns="http://www.w3.org/2000/svg">
<path d="M0 0H11.75C12.7604 0 13.6771 0.25 14.5 0.75C15.3333 1.23958 15.9948 1.89583 16.4844 2.71875C16.9844 3.54167 17.2344 4.45833 17.2344 5.46875V7.6875C17.2344 8.67708 16.9844 9.58333 16.4844 10.4062C15.9948 11.2188 15.3333 11.8698 14.5 12.3594C13.6771 12.8385 12.7604 13.0781 11.75 13.0781H5.17188V9.79688H11.75C12.3646 9.79688 12.8854 9.58854 13.3125 9.17188C13.7396 8.75521 13.9531 8.24479 13.9531 7.64062V5.46875C13.9531 4.86458 13.7396 4.34896 13.3125 3.92188C12.8854 3.49479 12.3646 3.28125 11.75 3.28125H3.29688V22.2188H0V0Z" fill="black"/>
</svg>
